<?xml version="1.0" encoding="utf-8"?>
<!-- Generator: Adobe Illustrator 19.0.0, SVG Export Plug-In . SVG Version: 6.00 Build 0)  -->
<svg version="1.1" id="Calque_2" xmlns="http://www.w3.org/2000/svg" xmlns:xlink="http://www.w3.org/1999/xlink" x="0px" y="0px"
	 viewBox="0 0 202.6 500" style="enable-background:new 0 0 202.6 500;" xml:space="preserve">
<style type="text/css">
	.st0{fill:#F3D333;}
	.st1{fill:#D51624;}
	.st2{fill:#FFFFFF;}
</style>
<path id="XMLID_7_" class="st0" d="M90.6,365.3V500c37.2,0,67.4-30.2,67.4-67.4S127.8,365.3,90.6,365.3z"/>
<path id="XMLID_5_" class="st1" d="M83.2,428.8v44.1c0,0-59.1-27-56.6-65.4c2.5-37.3,35.9-54.4,35.9-54.4s-15.7,19.3-11.3,41.4
	C55.3,415.4,83.2,428.8,83.2,428.8z"/>
<path id="XMLID_4_" class="st2" d="M122.6,0c0,0-37,11-94.9,105.4s-8.3,198.1,0,198.7s-8-54.2,22.6-116.4
	c22.4-45.4,76.2-62.9,76.2-62.9s7.9,5.5-6.1,38.1C107.7,192.6,89,188.2,63,234c-26.6,47,0,92.2,6.1,91.6c6.1-0.6,1.7-92.7,61.8-87.7
	c47.7,3.9,17.4,106,20.4,108.2s56.9-45.4,50.8-93.3c-5-38.6-31.1-66.5-43.2-104.4C146.6,109.8,122.6,0,122.6,0z"/>
</svg>
